<svg width="18" height="24" viewBox="0 0 18 24" fill="none" xmlns="http://www.w3.org/2000/svg">
<path d="M18 16.4001C17.9952 14.2805 17.006 12.2855 15.3271 11.01L12.6001 8.94751C11.8808 8.40069 11.457 7.54583 11.4547 6.63751V6.22501H10.6365V5.8418C10.6339 4.87536 11.0148 3.94801 11.6944 3.26656C12.3288 2.63038 12.6844 1.7647 12.6819 0.862512V0.450012H12.2729C11.3782 0.447537 10.5196 0.806103 9.88874 1.44579C9.64861 1.68963 9.43062 1.95466 9.23748 2.23779C8.95532 1.63863 8.57467 1.09191 8.11169 0.620787C7.48079 -0.0188969 6.62228 -0.377462 5.72757 -0.374987H5.31849V0.0375125C5.31603 0.939701 5.67163 1.80538 6.30601 2.44156C6.98559 3.12301 7.36655 4.05036 7.36389 5.0168V6.22501H6.54573V6.63751C6.54348 7.54583 6.11962 8.40069 5.4003 8.94751L2.67337 11.01C-0.277845 13.2403 -0.877251 17.4608 1.3346 20.4367C2.57064 22.0997 4.49894 23.094 6.55964 23.1309C6.28647 23.4872 6.13772 23.9246 6.13665 24.375H6.95481C6.9568 23.8301 7.31265 23.3509 7.83065 23.1957C7.79419 23.3102 7.77476 23.4297 7.77297 23.55V24.375H8.59114V23.55C8.59114 23.3222 8.7743 23.1375 9.00022 23.1375C9.22613 23.1375 9.4093 23.3222 9.4093 23.55V24.375H10.2275V23.55C10.2257 23.4297 10.2062 23.3102 10.1698 23.1957C10.6878 23.3509 11.0436 23.8301 11.0456 24.375H11.8638C11.8621 23.9245 11.7128 23.4873 11.4392 23.1313C15.0787 23.0626 17.9949 20.0707 18 16.4001ZM10.4672 2.02906C10.836 1.65554 11.3101 1.40588 11.8249 1.3142C11.734 1.83328 11.4864 2.31137 11.116 2.68329C10.2824 3.51906 9.81511 4.65643 9.81838 5.8418V4.77507C9.81838 4.63482 9.81265 4.49499 9.80283 4.35556C9.79956 4.3106 9.79342 4.26605 9.78933 4.2215C9.78033 4.12662 9.77092 4.03216 9.75743 3.9377C9.74965 3.88449 9.73943 3.83169 9.73043 3.77889C9.7157 3.69391 9.70097 3.60935 9.68256 3.52479C9.67029 3.46745 9.65556 3.41052 9.64165 3.35319C9.62938 3.30369 9.61957 3.25377 9.60607 3.20427C9.83469 2.77223 10.1248 2.37633 10.4672 2.02906ZM6.88445 1.85829C6.51387 1.48652 6.26628 1.00833 6.17551 0.4892C6.69029 0.580878 7.16441 0.830543 7.53325 1.20406C8.47112 2.15209 8.99858 3.43599 9.00022 4.77507V6.22501H8.18205V5.0168C8.18538 3.83143 7.7181 2.69406 6.88445 1.85829ZM0.818595 16.4001C0.822788 14.5401 1.69076 12.7895 3.16386 11.67L5.89079 9.60751C6.70144 8.99159 7.22562 8.06692 7.34057 7.05001H7.34385C7.25114 8.37934 6.68441 9.62989 5.74843 10.5707L3.86052 12.4744C1.44423 14.9064 1.4406 18.8531 3.85244 21.2896C4.07406 21.5134 4.31225 21.72 4.56496 21.9074C2.31 21.0256 0.822532 18.839 0.818595 16.4001ZM3.4652 14.399C3.71939 13.9041 4.04788 13.4516 4.43896 13.0577L6.32687 11.154C7.41303 10.0645 8.06736 8.61261 8.16692 7.07105C8.09466 9.00067 7.52338 10.8777 6.50973 12.516L5.73575 13.7663C4.66135 15.4939 4.28505 17.5712 4.68441 19.5702C4.84339 20.3666 5.21724 21.1033 5.76479 21.6991C3.13062 20.3236 2.10106 17.0552 3.4652 14.399ZM8.29649 22.2423C6.8779 21.9563 5.76904 20.8381 5.48539 19.4077L5.48662 19.4081C5.12821 17.6159 5.46494 15.7533 6.42751 14.204L7.2019 12.9549C8.15623 11.417 8.74909 9.67944 8.93517 7.87501H9.06567C9.25134 9.67913 9.84364 11.4166 10.7973 12.9545L11.5717 14.2036C12.5343 15.7529 12.871 17.6155 12.5126 19.4077C12.1246 21.3644 10.237 22.6335 8.29649 22.2423ZM13.316 19.5702C13.7154 17.5712 13.3391 15.4939 12.2647 13.7663L11.4903 12.5173C10.62 11.1099 10.0742 9.52351 9.89324 7.87501H9.9411C10.1804 9.11777 10.7832 10.2598 11.6719 11.154L13.5598 13.0577C15.6584 15.1718 15.66 18.6011 13.5634 20.7172C13.1728 21.1114 12.7243 21.4425 12.2336 21.6987C12.7819 21.1032 13.1564 20.3666 13.316 19.5702ZM13.4355 21.9074C16.1857 19.8677 16.7754 15.9661 14.7527 13.1929C14.5668 12.938 14.3619 12.6979 14.1399 12.4744L12.252 10.5707C11.316 9.62989 10.7493 8.37934 10.6566 7.05001H10.6599C10.7747 8.06687 11.2987 8.99149 12.1092 9.60751L14.8362 11.67C17.4254 13.6264 17.9515 17.329 16.0113 19.9399C15.3526 20.8263 14.46 21.5081 13.4355 21.9074Z" fill="#FB6D3A"/>
</svg>
