<svg width="21" height="20" viewBox="0 0 21 20" fill="none" xmlns="http://www.w3.org/2000/svg">
<path d="M9.90279 1.13855C9.9624 0.953735 10.2239 0.953734 10.2835 1.13855L12.2819 7.33514C12.3086 7.41791 12.3857 7.47395 12.4727 7.47376L18.9836 7.45953C19.1778 7.4591 19.2586 7.70779 19.1012 7.82158L13.8254 11.6371C13.755 11.688 13.7255 11.7787 13.7526 11.8613L15.7781 18.0491C15.8385 18.2337 15.6269 18.3874 15.4701 18.2729L10.2111 14.4344C10.1408 14.3831 10.0455 14.3831 9.97523 14.4344L4.7162 18.2729C4.55934 18.3874 4.3478 18.2337 4.40821 18.0491L6.43371 11.8613C6.46077 11.7787 6.43131 11.688 6.36084 11.6371L1.08508 7.82158C0.927726 7.70779 1.00853 7.4591 1.20272 7.45953L7.71358 7.47376C7.80055 7.47395 7.87767 7.41791 7.90436 7.33514L9.90279 1.13855Z" stroke="#FF7622" stroke-width="2"/>
</svg>
